<?xml version="1.0" encoding="utf-8"?>
<!-- Generator: Adobe Illustrator 19.2.1, SVG Export Plug-In . SVG Version: 6.00 Build 0)  -->
<svg version="1.1" id="Layer_1" xmlns="http://www.w3.org/2000/svg" xmlns:xlink="http://www.w3.org/1999/xlink" x="0px" y="0px"
	 viewBox="0 0 1008 216" style="enable-background:new 0 0 1008 216;" xml:space="preserve">
<style type="text/css">
	.st0{fill:#010101;}
</style>
<desc>Tail Light assets</desc>
<metadata><?xpacket begin="﻿" id="W5M0MpCehiHzreSzNTczkc9d"?>
<x:xmpmeta xmlns:x="adobe:ns:meta/" x:xmptk="Adobe XMP Core 5.6-c111 79.158366, 2015/09/25-01:12:00        ">
   <rdf:RDF xmlns:rdf="http://www.w3.org/1999/02/22-rdf-syntax-ns#">
      <rdf:Description rdf:about=""
            xmlns:xmp="http://ns.adobe.com/xap/1.0/"
            xmlns:xmpMM="http://ns.adobe.com/xap/1.0/mm/"
            xmlns:stEvt="http://ns.adobe.com/xap/1.0/sType/ResourceEvent#"
            xmlns:xmpRights="http://ns.adobe.com/xap/1.0/rights/"
            xmlns:dc="http://purl.org/dc/elements/1.1/"
            xmlns:Iptc4xmpCore="http://iptc.org/std/Iptc4xmpCore/1.0/xmlns/">
         <xmp:MetadataDate>2016-08-22T12:54:56-05:00</xmp:MetadataDate>
         <xmpMM:InstanceID>xmp.iid:2cdf81c6-eeeb-408f-bd0f-10bb4d5e2e69</xmpMM:InstanceID>
         <xmpMM:DocumentID>xmp.did:365e7eb7-f262-4fa3-b9de-36bf7bca899b</xmpMM:DocumentID>
         <xmpMM:OriginalDocumentID>xmp.did:365e7eb7-f262-4fa3-b9de-36bf7bca899b</xmpMM:OriginalDocumentID>
         <xmpMM:History>
            <rdf:Seq>
               <rdf:li>
                  <rdf:Description>
                     <stEvt:action>saved</stEvt:action>
                     <stEvt:instanceID>xmp.iid:365e7eb7-f262-4fa3-b9de-36bf7bca899b</stEvt:instanceID>
                     <stEvt:when>2016-08-22T12:40:59-05:00</stEvt:when>
                     <stEvt:softwareAgent>Adobe Bridge CC 2015 (Macintosh)</stEvt:softwareAgent>
                     <stEvt:changed>/metadata</stEvt:changed>
                  </rdf:Description>
               </rdf:li>
               <rdf:li>
                  <rdf:Description>
                     <stEvt:action>saved</stEvt:action>
                     <stEvt:instanceID>xmp.iid:2cdf81c6-eeeb-408f-bd0f-10bb4d5e2e69</stEvt:instanceID>
                     <stEvt:when>2016-08-22T12:54:56-05:00</stEvt:when>
                     <stEvt:softwareAgent>Adobe Bridge CC 2015 (Macintosh)</stEvt:softwareAgent>
                     <stEvt:changed>/metadata</stEvt:changed>
                  </rdf:Description>
               </rdf:li>
            </rdf:Seq>
         </xmpMM:History>
         <xmpRights:Marked>True</xmpRights:Marked>
         <xmpRights:UsageTerms>
            <rdf:Alt>
               <rdf:li xml:lang="x-default">© 2016 Tail Light LLC. All Rights Reserved.</rdf:li>
            </rdf:Alt>
         </xmpRights:UsageTerms>
         <dc:creator>
            <rdf:Seq>
               <rdf:li>Tail Light LLC</rdf:li>
            </rdf:Seq>
         </dc:creator>
         <dc:description>
            <rdf:Alt>
               <rdf:li xml:lang="x-default">Tail Light assets</rdf:li>
            </rdf:Alt>
         </dc:description>
         <dc:subject>
            <rdf:Bag>
               <rdf:li>Tail Light</rdf:li>
            </rdf:Bag>
         </dc:subject>
         <dc:rights>
            <rdf:Alt>
               <rdf:li xml:lang="x-default">© 2016 Tail Light LLC. All Rights Reserved.</rdf:li>
            </rdf:Alt>
         </dc:rights>
         <Iptc4xmpCore:CreatorContactInfo>
            <rdf:Description>
               <Iptc4xmpCore:CiAdrExtadr>15305 Dallas Parkway; Suite 1300</Iptc4xmpCore:CiAdrExtadr>
               <Iptc4xmpCore:CiAdrCity>Addison</Iptc4xmpCore:CiAdrCity>
               <Iptc4xmpCore:CiAdrRegion>TX</Iptc4xmpCore:CiAdrRegion>
               <Iptc4xmpCore:CiAdrPcode>75001</Iptc4xmpCore:CiAdrPcode>
               <Iptc4xmpCore:CiAdrCtry>USA</Iptc4xmpCore:CiAdrCtry>
               <Iptc4xmpCore:CiTelWork>972-991-6300</Iptc4xmpCore:CiTelWork>
               <Iptc4xmpCore:CiUrlWork>www.taillight.com</Iptc4xmpCore:CiUrlWork>
            </rdf:Description>
         </Iptc4xmpCore:CreatorContactInfo>
      </rdf:Description>
   </rdf:RDF>
</x:xmpmeta>
                                                                                                    
                                                                                                    
                                                                                                    
                                                                                                    
                                                                                                    
                                                                                                    
                                                                                                    
                                                                                                    
                                                                                                    
                                                                                                    
                                                                                                    
                                                                                                    
                                                                                                    
                                                                                                    
                                                                                                    
                    
<?xpacket end="w"?></metadata>
<g>
	<g>
		<g>
			<g>
				<g>
					<path class="st0" d="M433,36.2c-39.7,0-71.7,32.1-71.7,71.7c0,39.7,32.1,71.7,71.7,71.7s71.7-32.2,71.7-71.7
						C504.6,68.3,472.5,36.2,433,36.2z M433,170.1v-23.9c-21.1,0-38.2-17.2-38.2-38.3c0-21,17.1-38.2,38.2-38.2v4.6v67.1v4.7
						c21.1,0,38.3-17.2,38.3-38.3c0-21-17.2-38.2-38.3-38.2V45.8c34.3,0,62.1,27.9,62.1,62.2C495,142.2,467.2,170.1,433,170.1z"/>
				</g>
				<g>
					<g>
						<polygon class="st0" points="120.3,69.7 37.2,69.7 37.2,80.3 73.2,80.3 73.2,146.1 84.1,146.1 84.1,80.3 120.3,80.3 						"/>
						<path class="st0" d="M176.6,78.1c-2.9-5.9-6.6-8.3-12.4-8.3c-5.8,0-9.4,2.5-12.4,8.4c-0.2,0.5-28.9,58.4-32.1,64.4l-1.9,3.7
							h12l9-17.9h50.6l9,17.9h12l-1.9-3.7C205.6,136.4,176.9,78.6,176.6,78.1z M184.4,117.8h-40.1c4.1-8.2,12.4-24.8,15.8-31.7
							l1.6-3.2c1.2-2.4,1.2-2.4,2.7-2.4s1.5,0,2.7,2.4l1.6,3.2C172.1,93.1,180.2,109.7,184.4,117.8z"/>
						<rect x="227.4" y="69.7" class="st0" width="10.8" height="76.5"/>
						<path class="st0" d="M283,135.6c-7.3,0-7.5-0.2-7.5-7.1V69.7h-10.8v58.6c0,12.8,5.1,17.9,18.2,17.9h46.8v-10.5H283z"/>
					</g>
					<g>
						<path class="st0" d="M546.8,128.6V69.8H536v58.6c0,12.8,5.1,17.9,18.2,17.9H601v-10.6h-46.7
							C547.2,135.6,546.8,135.4,546.8,128.6z"/>
						<rect x="618.2" y="69.8" class="st0" width="10.8" height="76.5"/>
						<path class="st0" d="M691,113.8H722v13.9c-6.8,5.9-17.6,9.2-30.4,9.2c-27,0-32-9.7-32-28.9c0-18.7,5-28.9,31.1-28.9
							c22.4,0,27.8,7,30,13.1l0.6,1.7h11.4l-1-3.3c-4.5-14.8-17.9-22.1-41-22.1c-29,0-42.1,12.1-42.1,39.4
							c0,19.5,5.1,39.4,43.1,39.4c17.8,0,31.4-4.9,40.4-14.6l0.7-0.7v-28.8H691L691,113.8L691,113.8z"/>
						<polygon class="st0" points="822.8,102.6 767.3,102.6 767.3,69.8 756.5,69.8 756.5,146.2 767.3,146.2 767.3,113.2 
							822.8,113.2 822.8,146.2 833.7,146.2 833.7,69.8 822.8,69.8 						"/>
						<polygon class="st0" points="854.5,69.8 854.5,80.3 890.5,80.3 890.5,146.2 901.2,146.2 901.2,80.3 937.5,80.3 937.5,69.8 
													"/>
					</g>
				</g>
			</g>
		</g>
	</g>
	<g>
		<path class="st0" d="M970.8,63.2c0,5.9-3.8,10.8-10.7,10.8c-6.8,0-10.7-4.9-10.7-10.8c0-5.9,3.9-10.8,10.7-10.8
			S970.8,57.3,970.8,63.2z M960,72.8c5.9,0,9.2-4.2,9.2-9.5s-3.4-9.5-9.2-9.5c-5.9,0-9.2,4.2-9.2,9.5S954.2,72.8,960,72.8z
			 M961.2,57.5h-5v11.4h1.4v-4.3h2.5l3.7,4.3h1.5v-0.2l-3.6-4C966.2,64,966,57.5,961.2,57.5z M957.5,58.8h3.6c3.2,0,3.1,4.5-0.1,4.5
			h-3.6L957.5,58.8L957.5,58.8z"/>
	</g>
</g>
</svg>
